<svg width="34" height="26" viewBox="0 0 34 26" fill="none" xmlns="http://www.w3.org/2000/svg">
<path d="M28.8012 2.17749C26.6004 1.16025 24.2471 0.420959 21.7868 0C21.4846 0.539654 21.1316 1.2655 20.8882 1.84291C18.2729 1.45436 15.6816 1.45436 13.1143 1.84291C12.871 1.2655 12.51 0.539654 12.2051 0C9.74214 0.420959 7.38615 1.16297 5.18527 2.18288C0.746077 8.8097 -0.457316 15.2719 0.144382 21.6424C3.08869 23.8144 5.94208 25.1339 8.74732 25.9973C9.43994 25.0556 10.0577 24.0546 10.5898 22.9996C9.57632 22.6192 8.60558 22.1497 7.68835 21.6046C7.93169 21.4265 8.16971 21.2404 8.39967 21.0488C13.9941 23.6337 20.0726 23.6337 25.6002 21.0488C25.8329 21.2404 26.0709 21.4265 26.3115 21.6046C25.3916 22.1523 24.4182 22.6218 23.4047 23.0023C23.9368 24.0546 24.5519 25.0584 25.2472 26C28.0551 25.1366 30.9112 23.8172 33.8555 21.6424C34.5615 14.2574 32.6494 7.85452 28.8012 2.17749ZM11.352 17.7246C9.67261 17.7246 8.29537 16.1758 8.29537 14.2898C8.29537 12.4037 9.6432 10.8522 11.352 10.8522C13.0608 10.8522 14.438 12.401 14.4086 14.2898C14.4113 16.1758 13.0608 17.7246 11.352 17.7246ZM22.6479 17.7246C20.9685 17.7246 19.5913 16.1758 19.5913 14.2898C19.5913 12.4037 20.939 10.8522 22.6479 10.8522C24.3567 10.8522 25.7339 12.401 25.7045 14.2898C25.7045 16.1758 24.3567 17.7246 22.6479 17.7246Z" fill="white"/>
</svg>
