<svg width="34" height="29" viewBox="0 0 34 29" fill="none" xmlns="http://www.w3.org/2000/svg">
<path d="M22.2617 14.5C22.2617 13.083 23.3753 11.9343 24.749 11.9343C26.1227 11.9343 27.2363 13.083 27.2363 14.5C27.2363 15.917 26.1227 17.0657 24.749 17.0657C23.3753 17.0657 22.2617 15.917 22.2617 14.5Z" fill="#D3CAFF"/>
<path fill-rule="evenodd" clip-rule="evenodd" d="M30.4554 5.39003C29.3647 2.74621 26.9547 0.845664 24.0868 0.534361L23.0059 0.417029C17.5466 -0.17557 12.0401 -0.136492 6.58924 0.533535L5.873 0.621576C3.10581 0.96172 0.913254 3.19185 0.544676 6.04122C-0.181559 11.6555 -0.181559 17.3445 0.544676 22.9588C0.913254 25.8081 3.10581 28.0383 5.873 28.3784L6.58925 28.4665C12.0401 29.1365 17.5466 29.1756 23.0059 28.583L24.0868 28.4656C26.9547 28.1543 29.3647 26.2538 30.4554 23.61C32.1787 23.0807 33.4939 21.5396 33.7098 19.6355C34.0967 16.2235 34.0967 12.7765 33.7098 9.36452C33.4939 7.46038 32.1787 5.91929 30.4554 5.39003ZM22.7456 2.96865C17.4707 2.39607 12.1503 2.43383 6.88356 3.08122L6.16731 3.16926C4.52767 3.37081 3.22851 4.69223 3.01012 6.38056C2.31302 11.7696 2.31302 17.2304 3.01012 22.6194C3.22851 24.3078 4.52767 25.6292 6.16731 25.8307L6.88356 25.9188C12.1503 26.5662 17.4707 26.6039 22.7456 26.0314L23.8265 25.914C25.2369 25.7609 26.4848 25.0438 27.3496 23.9793C24.8488 24.1298 22.3147 24.0626 19.8436 23.7777C17.7388 23.535 16.0365 21.8253 15.7882 19.6355C15.4013 16.2235 15.4013 12.7765 15.7882 9.36452C16.0365 7.17467 17.7388 5.46499 19.8436 5.22232C22.3147 4.93744 24.8488 4.87021 27.3496 5.02064C26.4848 3.95618 25.2369 3.23908 23.8265 3.08598L22.7456 2.96865ZM28.5253 7.68324C28.5263 7.68981 28.5273 7.69637 28.5283 7.70295L28.5383 7.76946L28.8677 7.71669C29.0382 7.73409 29.2083 7.75258 29.3781 7.77216C30.3522 7.88445 31.1278 8.67835 31.2394 9.66257C31.6038 12.8766 31.6038 16.1234 31.2394 19.3374C31.1278 20.3216 30.3522 21.1155 29.3781 21.2278C29.2083 21.2474 29.0382 21.2659 28.8677 21.2833L28.5383 21.2305L28.5283 21.2971C28.5273 21.3036 28.5263 21.3102 28.5253 21.3167C25.7418 21.5765 22.8872 21.5469 20.1199 21.2278C19.1459 21.1155 18.3702 20.3216 18.2586 19.3374C17.8942 16.1234 17.8942 12.8766 18.2586 9.66257C18.3702 8.67835 19.1459 7.88445 20.1199 7.77216C22.8872 7.45312 25.7418 7.42349 28.5253 7.68324Z" fill="#D3CAFF"/>
</svg>
