<svg width="43" height="30" viewBox="0 0 43 30" fill="none" xmlns="http://www.w3.org/2000/svg">
<path fill-rule="evenodd" clip-rule="evenodd" d="M1.8154 0.600006C1.38697 0.600006 0.976091 0.769748 0.673147 1.07189C0.370204 1.37403 0.200012 1.78382 0.200012 2.21112C0.200012 2.63841 0.370204 3.0482 0.673147 3.35034C0.976091 3.65249 1.38697 3.82223 1.8154 3.82223H40.5846C41.0131 3.82223 41.4239 3.65249 41.7269 3.35034C42.0298 3.0482 42.2 2.63841 42.2 2.21112C42.2 1.78382 42.0298 1.37403 41.7269 1.07189C41.4239 0.769748 41.0131 0.600006 40.5846 0.600006H1.8154ZM0.200012 15.1C0.200012 14.6727 0.370204 14.2629 0.673147 13.9608C0.976091 13.6586 1.38697 13.4889 1.8154 13.4889H40.5846C41.0131 13.4889 41.4239 13.6586 41.7269 13.9608C42.0298 14.2629 42.2 14.6727 42.2 15.1C42.2 15.5273 42.0298 15.9371 41.7269 16.2392C41.4239 16.5414 41.0131 16.7111 40.5846 16.7111H1.8154C1.38697 16.7111 0.976091 16.5414 0.673147 16.2392C0.370204 15.9371 0.200012 15.5273 0.200012 15.1V15.1ZM0.200012 27.9889C0.200012 27.5616 0.370204 27.1518 0.673147 26.8497C0.976091 26.5475 1.38697 26.3778 1.8154 26.3778H40.5846C41.0131 26.3778 41.4239 26.5475 41.7269 26.8497C42.0298 27.1518 42.2 27.5616 42.2 27.9889C42.2 28.4162 42.0298 28.826 41.7269 29.1281C41.4239 29.4303 41.0131 29.6 40.5846 29.6H1.8154C1.38697 29.6 0.976091 29.4303 0.673147 29.1281C0.370204 28.826 0.200012 28.4162 0.200012 27.9889V27.9889Z" fill="#F8F8F8"/>
</svg>
