<svg width="21" height="16" viewBox="0 0 21 16" fill="none" xmlns="http://www.w3.org/2000/svg">
<path d="M9.81445 4.25625L9.85826 4.9483L9.12802 4.86356C6.46994 4.53872 4.14777 3.4371 2.17612 1.58693L1.2122 0.668915L0.963919 1.34684C0.438145 2.85804 0.774056 4.45398 1.86942 5.52735C2.45361 6.12053 2.32217 6.20528 1.31444 5.85219C0.963919 5.7392 0.657218 5.65446 0.628008 5.69683C0.525774 5.7957 0.87629 7.08092 1.15378 7.58937C1.53351 8.29553 2.30756 8.98758 3.15464 9.39716L3.87028 9.72199L3.0232 9.73612C2.20533 9.73612 2.17612 9.75024 2.26375 10.0468C2.55585 10.9649 3.70963 11.9394 4.99485 12.3631L5.90035 12.6597L5.11169 13.1116C3.94331 13.7613 2.57045 14.1285 1.1976 14.1567C0.540379 14.1709 0 14.2273 0 14.2697C0 14.411 1.78179 15.2019 2.81873 15.5126C5.92956 16.4306 9.62459 16.0351 12.3995 14.4674C14.3712 13.3517 16.3428 11.1343 17.2629 8.98758C17.7595 7.84359 18.256 5.75333 18.256 4.75057C18.256 4.10089 18.2999 4.01615 19.1177 3.23937C19.5997 2.78742 20.0524 2.2931 20.1401 2.15187C20.2861 1.88352 20.2715 1.88352 19.5267 2.12362C18.2853 2.54732 18.11 2.49083 18.7234 1.85528C19.1761 1.40333 19.7165 0.584174 19.7165 0.344077C19.7165 0.301707 19.4975 0.372324 19.2492 0.499434C18.9863 0.640668 18.4021 0.852518 17.9639 0.979629L17.1753 1.21973L16.4596 0.753655C16.0653 0.499434 15.5103 0.216967 15.2182 0.132227C14.4734 -0.0655006 13.3342 -0.0372539 12.6624 0.18872C10.8368 0.824272 9.68301 2.46258 9.81445 4.25625Z" fill="#999999"/>
</svg>
