<svg width="21" height="16" viewBox="0 0 21 16" fill="none" xmlns="http://www.w3.org/2000/svg">
<path d="M13.4897 7.99999C13.4897 7.21819 14.1518 6.58442 14.9684 6.58442C15.7851 6.58442 16.4471 7.21819 16.4471 7.99999C16.4471 8.78178 15.7851 9.41555 14.9684 9.41555C14.1518 9.41555 13.4897 8.78178 13.4897 7.99999Z" fill="black"/>
<path fill-rule="evenodd" clip-rule="evenodd" d="M18.3608 2.97381C17.7124 1.51515 16.2797 0.466573 14.5748 0.29482L13.9322 0.230085C10.6866 -0.0968663 7.41309 -0.0753058 4.17257 0.294364L3.74677 0.342938C2.10169 0.530604 0.798233 1.76102 0.579116 3.33309C0.147375 6.43064 0.147375 9.56936 0.579116 12.6669C0.798233 14.239 2.10169 15.4694 3.74677 15.6571L4.17257 15.7056C7.41309 16.0753 10.6866 16.0969 13.9322 15.7699L14.5748 15.7052C16.2797 15.5334 17.7124 14.4848 18.3608 13.0262C19.3853 12.7342 20.1672 11.8839 20.2956 10.8334C20.5256 8.95087 20.5256 7.04913 20.2956 5.16663C20.1672 4.11607 19.3853 3.26582 18.3608 2.97381ZM13.7774 1.63788C10.6415 1.32197 7.47858 1.3428 4.34754 1.69998L3.92174 1.74856C2.94698 1.85976 2.17464 2.58881 2.04481 3.52031C1.63039 6.4936 1.63039 9.5064 2.04481 12.4797C2.17464 13.4112 2.94698 14.1402 3.92174 14.2514L4.34754 14.3C7.47858 14.6572 10.6415 14.678 13.7774 14.3621L14.42 14.2974C15.2585 14.2129 16.0003 13.8173 16.5144 13.23C15.0277 13.313 13.5212 13.2759 12.0522 13.1187C10.8009 12.9848 9.78889 12.0416 9.64128 10.8334C9.41129 8.95087 9.41129 7.04913 9.64128 5.16663C9.78889 3.95844 10.8009 3.01516 12.0522 2.88128C13.5212 2.7241 15.0277 2.68701 16.5144 2.77001C16.0003 2.18272 15.2585 1.78708 14.42 1.70261L13.7774 1.63788ZM17.2134 4.23903C17.214 4.24265 17.2146 4.24628 17.2152 4.2499L17.2212 4.2866L17.417 4.25748C17.5183 4.26708 17.6195 4.27728 17.7204 4.28809C18.2995 4.35004 18.7606 4.78806 18.8269 5.33108C19.0436 7.10431 19.0436 8.89568 18.8269 10.6689C18.7606 11.2119 18.2995 11.65 17.7204 11.7119C17.6195 11.7227 17.5183 11.7329 17.417 11.7425L17.2212 11.7134L17.2152 11.7501C17.2146 11.7537 17.214 11.7573 17.2134 11.761C15.5586 11.9043 13.8616 11.8879 12.2164 11.7119C11.6374 11.65 11.1763 11.2119 11.1099 10.6689C10.8933 8.89568 10.8933 7.10431 11.1099 5.33108C11.1763 4.78806 11.6374 4.35004 12.2164 4.28809C13.8616 4.11207 15.5587 4.09572 17.2134 4.23903Z" fill="black"/>
</svg>
